<svg width="595" height="174" viewBox="0 0 595 174" fill="none" xmlns="http://www.w3.org/2000/svg">
<path d="M127.095 0V3.72881C122.755 4.47457 118.348 6.02824 113.877 8.38982C109.405 10.7514 104.801 14.6045 100.066 19.9492L62.7786 63.2034L71.6566 49.7797L118.809 116.898C120.913 119.757 123.083 122.056 125.319 123.797C127.555 125.537 130.449 127.028 134 128.271V132C129.923 131.751 125.254 131.627 119.992 131.627C114.731 131.503 109.931 131.441 105.59 131.441C103.091 131.441 99.9347 131.503 96.1205 131.627C92.4377 131.627 87.7686 131.751 82.1129 132V128.271C87.374 128.023 90.5306 127.339 91.5828 126.22C92.635 124.977 92.1747 122.864 90.2018 119.881L61.3976 77C59.2932 73.7684 57.386 71.3446 55.6762 69.7288C54.0979 68.113 52.4538 67.0565 50.744 66.5593C49.0341 65.9379 46.9297 65.565 44.4307 65.4407V61.7119C49.9548 61.4633 54.887 60.096 59.2274 57.6102C63.5678 55.1243 67.9081 51.4576 72.2485 46.6102L86.256 30.0169C91.1225 24.548 94.0818 19.887 95.134 16.0339C96.1862 12.1808 95.5944 9.19773 93.3584 7.08474C91.1225 4.97175 87.374 3.8531 82.1129 3.72881V0C85.0065 0.124292 87.9001 0.248584 90.7937 0.372877C93.6872 0.372877 96.5808 0.435023 99.4744 0.559315C102.499 0.559315 105.656 0.559315 108.944 0.559315C112.759 0.559315 116.178 0.497169 119.203 0.372877C122.228 0.248584 124.859 0.124292 127.095 0ZM60.4111 0V3.72881C56.2023 3.8531 52.9799 4.35028 50.744 5.22034C48.6396 5.9661 47.1928 7.45762 46.4036 9.69491C45.6144 11.8079 45.2199 15.1638 45.2199 19.7627V112.237C45.2199 116.712 45.6144 120.068 46.4036 122.305C47.1928 124.542 48.6396 126.034 50.744 126.78C52.9799 127.525 56.2023 128.023 60.4111 128.271V132C57.123 131.751 52.9142 131.627 47.7846 131.627C42.6551 131.503 37.4598 131.441 32.1988 131.441C26.2801 131.441 20.756 131.503 15.6265 131.627C10.497 131.627 6.28815 131.751 3 132V128.271C7.34036 128.023 10.5628 127.525 12.6672 126.78C14.9031 126.034 16.3499 124.542 17.0075 122.305C17.7967 120.068 18.1913 116.712 18.1913 112.237V19.7627C18.1913 15.1638 17.7967 11.8079 17.0075 9.69491C16.3499 7.45762 14.9031 5.9661 12.6672 5.22034C10.5628 4.35028 7.34036 3.8531 3 3.72881V0C6.28815 0.124292 10.497 0.248584 15.6265 0.372877C20.756 0.497169 26.2801 0.559315 32.1988 0.559315C37.4598 0.559315 42.6551 0.497169 47.7846 0.372877C52.9142 0.248584 57.123 0.124292 60.4111 0Z" fill="#533E59"/>
<path d="M139.475 32.675L157.7 79.7C158.45 81.5 159.25 82.75 160.1 83.45C161 84.1 161.825 84.45 162.575 84.5V86C161.275 85.9 159.7 85.85 157.85 85.85C156.05 85.8 154.2 85.775 152.3 85.775C150.1 85.775 148.05 85.8 146.15 85.85C144.25 85.85 142.7 85.9 141.5 86V84.5C144.05 84.4 145.675 83.975 146.375 83.225C147.075 82.425 146.925 80.75 145.925 78.2L132.725 42.575L134.075 40.925L122.075 72.05C121.125 74.55 120.55 76.6 120.35 78.2C120.15 79.8 120.275 81.05 120.725 81.95C121.175 82.85 121.925 83.5 122.975 83.9C124.025 84.25 125.325 84.45 126.875 84.5V86C125.275 85.9 123.725 85.85 122.225 85.85C120.725 85.8 119.225 85.775 117.725 85.775C116.625 85.775 115.575 85.8 114.575 85.85C113.625 85.85 112.775 85.9 112.025 86V84.5C113.125 84.25 114.2 83.6 115.25 82.55C116.35 81.5 117.4 79.675 118.4 77.075L135.575 32.675C136.175 32.725 136.825 32.75 137.525 32.75C138.225 32.75 138.875 32.725 139.475 32.675ZM146 64.4V65.9H123.65L124.4 64.4H146ZM185.506 32.9V34.4C183.806 34.45 182.506 34.65 181.606 35C180.756 35.3 180.181 35.9 179.881 36.8C179.581 37.65 179.431 39 179.431 40.85V78.65C179.431 80.25 179.556 81.475 179.806 82.325C180.106 83.125 180.631 83.65 181.381 83.9C182.131 84.15 183.206 84.275 184.606 84.275H188.881C190.831 84.275 192.531 83.925 193.981 83.225C195.481 82.525 196.781 81.5 197.881 80.15C198.981 78.8 199.881 77.15 200.581 75.2C201.281 73.2 201.781 70.95 202.081 68.45H203.806C203.656 70.1 203.581 72.25 203.581 74.9C203.581 76 203.606 77.575 203.656 79.625C203.756 81.675 203.906 83.8 204.106 86C201.556 85.9 198.681 85.85 195.481 85.85C192.281 85.8 189.431 85.775 186.931 85.775C185.731 85.775 184.206 85.775 182.356 85.775C180.506 85.775 178.481 85.8 176.281 85.85C174.131 85.85 171.931 85.875 169.681 85.925C167.481 85.925 165.381 85.95 163.381 86V84.5C165.031 84.4 166.256 84.2 167.056 83.9C167.906 83.6 168.456 83 168.706 82.1C169.006 81.2 169.156 79.85 169.156 78.05V40.85C169.156 39 169.006 37.65 168.706 36.8C168.456 35.9 167.906 35.3 167.056 35C166.256 34.65 165.031 34.45 163.381 34.4V32.9C164.631 32.95 166.231 33 168.181 33.05C170.131 33.1 172.231 33.125 174.481 33.125C176.531 33.125 178.556 33.1 180.556 33.05C182.556 33 184.206 32.95 185.506 32.9ZM245.903 32.9V34.4C244.903 34.7 243.853 35.475 242.753 36.725C241.653 37.925 240.453 39.8 239.153 42.35L224.678 71.075H221.903L204.353 38.675C203.403 36.925 202.578 35.8 201.878 35.3C201.178 34.75 200.553 34.475 200.003 34.475V32.9C201.203 32.95 202.453 33.025 203.753 33.125C205.103 33.175 206.553 33.2 208.103 33.2C210.103 33.2 212.253 33.175 214.553 33.125C216.853 33.075 219.003 33 221.003 32.9V34.475C219.753 34.475 218.628 34.575 217.628 34.775C216.628 34.975 215.953 35.4 215.603 36.05C215.253 36.7 215.378 37.65 215.978 38.9L228.128 62.15L226.328 64.25L234.878 47.3C236.528 44 237.378 41.425 237.428 39.575C237.528 37.725 237.003 36.425 235.853 35.675C234.753 34.875 233.178 34.45 231.128 34.4V32.9C232.778 32.95 234.328 33 235.778 33.05C237.278 33.1 238.753 33.125 240.203 33.125C241.403 33.125 242.453 33.1 243.353 33.05C244.303 33 245.153 32.95 245.903 32.9ZM229.253 60.5V78.05C229.253 79.85 229.403 81.2 229.703 82.1C230.003 83 230.553 83.6 231.353 83.9C232.203 84.2 233.428 84.4 235.028 84.5V86C233.778 85.9 232.153 85.85 230.153 85.85C228.153 85.8 226.153 85.775 224.153 85.775C222.003 85.775 219.928 85.8 217.928 85.85C215.978 85.85 214.403 85.9 213.203 86V84.5C214.853 84.4 216.078 84.2 216.878 83.9C217.728 83.6 218.278 83 218.528 82.1C218.828 81.2 218.978 79.85 218.978 78.05V62.675L224.678 67.325L229.253 60.5ZM272.837 31.85C276.137 31.85 278.837 32.35 280.937 33.35C283.087 34.3 284.987 35.425 286.637 36.725C287.637 37.475 288.387 37.575 288.887 37.025C289.437 36.425 289.812 35.05 290.012 32.9H291.737C291.637 34.8 291.562 37.125 291.512 39.875C291.462 42.625 291.437 46.25 291.437 50.75H289.712C289.412 48.5 289.087 46.625 288.737 45.125C288.387 43.575 287.887 42.25 287.237 41.15C286.637 40.05 285.787 39 284.687 38C283.337 36.5 281.712 35.4 279.812 34.7C277.962 33.95 276.012 33.575 273.962 33.575C271.362 33.575 269.087 34.275 267.137 35.675C265.237 37.025 263.637 38.9 262.337 41.3C261.087 43.65 260.137 46.4 259.487 49.55C258.887 52.7 258.587 56.05 258.587 59.6C258.587 63.25 258.912 66.65 259.562 69.8C260.262 72.9 261.262 75.625 262.562 77.975C263.912 80.275 265.562 82.075 267.512 83.375C269.512 84.675 271.812 85.325 274.412 85.325C276.262 85.325 278.162 84.975 280.112 84.275C282.062 83.575 283.662 82.5 284.912 81.05C286.562 79.55 287.687 77.775 288.287 75.725C288.887 73.625 289.362 70.85 289.712 67.4H291.437C291.437 72.1 291.462 75.9 291.512 78.8C291.562 81.65 291.637 84.05 291.737 86H290.012C289.812 83.85 289.462 82.5 288.962 81.95C288.512 81.4 287.737 81.475 286.637 82.175C284.787 83.475 282.812 84.625 280.712 85.625C278.662 86.575 276.012 87.05 272.762 87.05C267.662 87.05 263.187 85.975 259.337 83.825C255.487 81.675 252.487 78.575 250.337 74.525C248.237 70.475 247.187 65.6 247.187 59.9C247.187 54.3 248.287 49.4 250.487 45.2C252.687 41 255.712 37.725 259.562 35.375C263.412 33.025 267.837 31.85 272.837 31.85ZM338.177 32.9C337.977 34.95 337.827 36.95 337.727 38.9C337.677 40.8 337.652 42.25 337.652 43.25C337.652 44.2 337.677 45.125 337.727 46.025C337.777 46.875 337.827 47.6 337.877 48.2H336.152C335.752 44.75 335.102 42.05 334.202 40.1C333.302 38.1 332.077 36.7 330.527 35.9C329.027 35.05 327.052 34.625 324.602 34.625H320.477C318.977 34.625 317.827 34.75 317.027 35C316.227 35.25 315.677 35.775 315.377 36.575C315.127 37.375 315.002 38.6 315.002 40.25V78.65C315.002 80.25 315.127 81.475 315.377 82.325C315.677 83.125 316.227 83.65 317.027 83.9C317.827 84.15 318.977 84.275 320.477 84.275H324.752C327.302 84.275 329.427 83.8 331.127 82.85C332.877 81.9 334.277 80.35 335.327 78.2C336.377 76 337.152 73 337.652 69.2H339.377C339.227 70.75 339.152 72.75 339.152 75.2C339.152 76.25 339.177 77.775 339.227 79.775C339.327 81.775 339.477 83.85 339.677 86C337.127 85.9 334.252 85.85 331.052 85.85C327.852 85.8 325.002 85.775 322.502 85.775C321.352 85.775 319.827 85.775 317.927 85.775C316.077 85.775 314.052 85.8 311.852 85.85C309.702 85.85 307.502 85.875 305.252 85.925C303.052 85.925 300.952 85.95 298.952 86V84.5C300.602 84.4 301.827 84.2 302.627 83.9C303.477 83.6 304.027 83 304.277 82.1C304.577 81.2 304.727 79.85 304.727 78.05V40.85C304.727 39 304.577 37.65 304.277 36.8C304.027 35.9 303.477 35.3 302.627 35C301.827 34.65 300.602 34.45 298.952 34.4V32.9C300.952 32.95 303.052 33 305.252 33.05C307.502 33.05 309.702 33.075 311.852 33.125C314.052 33.125 316.077 33.125 317.927 33.125C319.827 33.125 321.352 33.125 322.502 33.125C324.802 33.125 327.402 33.125 330.302 33.125C333.252 33.075 335.877 33 338.177 32.9ZM326.102 58.55C326.102 58.55 326.102 58.8 326.102 59.3C326.102 59.8 326.102 60.05 326.102 60.05H312.752C312.752 60.05 312.752 59.8 312.752 59.3C312.752 58.8 312.752 58.55 312.752 58.55H326.102ZM328.277 48.65C328.077 51.5 327.977 53.675 327.977 55.175C328.027 56.675 328.052 58.05 328.052 59.3C328.052 60.55 328.077 61.925 328.127 63.425C328.177 64.925 328.302 67.1 328.502 69.95H326.777C326.527 68.25 326.127 66.65 325.577 65.15C325.077 63.6 324.252 62.375 323.102 61.475C322.002 60.525 320.402 60.05 318.302 60.05V58.55C319.852 58.55 321.102 58.225 322.052 57.575C323.052 56.925 323.852 56.1 324.452 55.1C325.052 54.05 325.502 52.975 325.802 51.875C326.152 50.725 326.402 49.65 326.552 48.65H328.277Z" fill="#1E1E1E"/>
<path d="M170.13 107.34C171.45 107.34 172.53 107.54 173.37 107.94C174.23 108.32 174.99 108.77 175.65 109.29C176.05 109.59 176.35 109.63 176.55 109.41C176.77 109.17 176.92 108.62 177 107.76H177.69C177.65 108.5 177.62 109.4 177.6 110.46C177.58 111.52 177.57 112.92 177.57 114.66H176.88C176.74 113.8 176.61 113.12 176.49 112.62C176.37 112.1 176.22 111.66 176.04 111.3C175.88 110.94 175.66 110.58 175.38 110.22C174.76 109.4 173.98 108.81 173.04 108.45C172.1 108.07 171.11 107.88 170.07 107.88C169.09 107.88 168.2 108.13 167.4 108.63C166.62 109.11 165.94 109.81 165.36 110.73C164.8 111.65 164.36 112.76 164.04 114.06C163.74 115.36 163.59 116.82 163.59 118.44C163.59 120.12 163.76 121.61 164.1 122.91C164.44 124.19 164.91 125.27 165.51 126.15C166.13 127.03 166.85 127.7 167.67 128.16C168.51 128.6 169.41 128.82 170.37 128.82C171.27 128.82 172.21 128.64 173.19 128.28C174.17 127.92 174.94 127.34 175.5 126.54C175.94 125.96 176.24 125.33 176.4 124.65C176.58 123.97 176.74 123.02 176.88 121.8H177.57C177.57 123.62 177.58 125.09 177.6 126.21C177.62 127.31 177.65 128.24 177.69 129H177C176.92 128.14 176.78 127.6 176.58 127.38C176.4 127.16 176.09 127.19 175.65 127.47C174.91 127.99 174.12 128.45 173.28 128.85C172.46 129.23 171.4 129.42 170.1 129.42C168.2 129.42 166.53 128.99 165.09 128.13C163.67 127.27 162.56 126.03 161.76 124.41C160.98 122.79 160.59 120.84 160.59 118.56C160.59 116.32 161 114.36 161.82 112.68C162.64 111 163.76 109.69 165.18 108.75C166.62 107.81 168.27 107.34 170.13 107.34ZM190.784 107.34C192.684 107.34 194.344 107.77 195.764 108.63C197.204 109.49 198.314 110.73 199.094 112.35C199.894 113.95 200.294 115.9 200.294 118.2C200.294 120.44 199.884 122.4 199.064 124.08C198.264 125.76 197.144 127.07 195.704 128.01C194.264 128.95 192.614 129.42 190.754 129.42C188.854 129.42 187.184 128.99 185.744 128.13C184.324 127.27 183.214 126.03 182.414 124.41C181.634 122.79 181.244 120.84 181.244 118.56C181.244 116.32 181.654 114.36 182.474 112.68C183.294 111 184.414 109.69 185.834 108.75C187.274 107.81 188.924 107.34 190.784 107.34ZM190.664 107.88C189.364 107.88 188.234 108.33 187.274 109.23C186.314 110.13 185.564 111.37 185.024 112.95C184.504 114.53 184.244 116.36 184.244 118.44C184.244 120.56 184.534 122.41 185.114 123.99C185.714 125.55 186.514 126.76 187.514 127.62C188.534 128.46 189.654 128.88 190.874 128.88C192.174 128.88 193.304 128.43 194.264 127.53C195.224 126.63 195.964 125.39 196.484 123.81C197.024 122.21 197.294 120.38 197.294 118.32C197.294 116.18 196.994 114.33 196.394 112.77C195.814 111.21 195.024 110.01 194.024 109.17C193.024 108.31 191.904 107.88 190.664 107.88ZM221.756 107.76V108.36C221.076 108.38 220.556 108.48 220.196 108.66C219.856 108.84 219.626 109.13 219.506 109.53C219.386 109.93 219.326 110.5 219.326 111.24V129.15C219.206 129.15 219.086 129.15 218.966 129.15C218.866 129.15 218.756 129.15 218.636 129.15L206.036 109.68V125.52C206.036 126.24 206.096 126.81 206.216 127.23C206.356 127.63 206.616 127.92 206.996 128.1C207.396 128.26 207.986 128.36 208.766 128.4V129C208.406 128.96 207.936 128.94 207.356 128.94C206.776 128.92 206.226 128.91 205.706 128.91C205.206 128.91 204.696 128.92 204.176 128.94C203.676 128.94 203.256 128.96 202.916 129V128.4C203.596 128.36 204.106 128.26 204.446 128.1C204.806 127.92 205.046 127.63 205.166 127.23C205.286 126.81 205.346 126.24 205.346 125.52V110.94C205.346 110.2 205.286 109.66 205.166 109.32C205.046 108.96 204.806 108.72 204.446 108.6C204.106 108.46 203.596 108.38 202.916 108.36V107.76C203.256 107.78 203.676 107.8 204.176 107.82C204.696 107.84 205.206 107.85 205.706 107.85C206.146 107.85 206.566 107.84 206.966 107.82C207.366 107.8 207.726 107.78 208.046 107.76L218.636 124.08V111.24C218.636 110.5 218.566 109.93 218.426 109.53C218.306 109.13 218.046 108.84 217.646 108.66C217.266 108.48 216.686 108.38 215.906 108.36V107.76C216.266 107.78 216.736 107.8 217.316 107.82C217.916 107.84 218.466 107.85 218.966 107.85C219.486 107.85 219.996 107.84 220.496 107.82C221.016 107.8 221.436 107.78 221.756 107.76ZM230.518 107.43C231.518 107.43 232.278 107.55 232.798 107.79C233.318 108.01 233.778 108.26 234.178 108.54C234.418 108.68 234.608 108.79 234.748 108.87C234.908 108.93 235.058 108.96 235.198 108.96C235.398 108.96 235.538 108.85 235.618 108.63C235.718 108.41 235.798 108.08 235.858 107.64H236.548C236.528 107.98 236.498 108.39 236.458 108.87C236.438 109.33 236.418 109.95 236.398 110.73C236.398 111.49 236.398 112.5 236.398 113.76H235.708C235.648 112.8 235.438 111.88 235.078 111C234.718 110.12 234.188 109.4 233.488 108.84C232.808 108.28 231.908 108 230.788 108C229.728 108 228.848 108.32 228.148 108.96C227.468 109.6 227.128 110.44 227.128 111.48C227.128 112.38 227.358 113.14 227.818 113.76C228.278 114.36 228.888 114.91 229.648 115.41C230.428 115.89 231.268 116.41 232.168 116.97C233.208 117.61 234.128 118.25 234.928 118.89C235.748 119.51 236.388 120.2 236.848 120.96C237.328 121.72 237.568 122.64 237.568 123.72C237.568 125 237.278 126.06 236.698 126.9C236.118 127.74 235.348 128.37 234.388 128.79C233.428 129.21 232.368 129.42 231.208 129.42C230.148 129.42 229.308 129.3 228.688 129.06C228.068 128.82 227.538 128.57 227.098 128.31C226.658 128.03 226.318 127.89 226.078 127.89C225.878 127.89 225.728 128 225.628 128.22C225.548 128.44 225.478 128.77 225.418 129.21H224.728C224.768 128.79 224.788 128.3 224.788 127.74C224.808 127.16 224.818 126.41 224.818 125.49C224.838 124.57 224.848 123.41 224.848 122.01H225.538C225.618 123.21 225.838 124.33 226.198 125.37C226.578 126.41 227.148 127.25 227.908 127.89C228.688 128.51 229.718 128.82 230.998 128.82C231.658 128.82 232.278 128.69 232.858 128.43C233.458 128.15 233.948 127.72 234.328 127.14C234.708 126.54 234.898 125.77 234.898 124.83C234.898 124.01 234.698 123.3 234.298 122.7C233.918 122.08 233.378 121.51 232.678 120.99C231.978 120.45 231.158 119.9 230.218 119.34C229.278 118.76 228.398 118.17 227.578 117.57C226.758 116.97 226.098 116.28 225.598 115.5C225.118 114.7 224.878 113.74 224.878 112.62C224.878 111.44 225.138 110.47 225.658 109.71C226.198 108.93 226.898 108.36 227.758 108C228.618 107.62 229.538 107.43 230.518 107.43ZM258.689 107.76V108.36C258.009 108.38 257.489 108.48 257.129 108.66C256.789 108.84 256.559 109.13 256.439 109.53C256.319 109.93 256.259 110.5 256.259 111.24V120.27C256.259 121.67 256.169 122.89 255.989 123.93C255.809 124.97 255.489 125.87 255.029 126.63C254.529 127.47 253.799 128.15 252.839 128.67C251.879 129.17 250.779 129.42 249.539 129.42C248.579 129.42 247.659 129.3 246.779 129.06C245.919 128.84 245.159 128.42 244.499 127.8C243.919 127.24 243.459 126.65 243.119 126.03C242.799 125.41 242.579 124.65 242.459 123.75C242.339 122.85 242.279 121.72 242.279 120.36V110.94C242.279 110.2 242.219 109.66 242.099 109.32C241.979 108.96 241.739 108.72 241.379 108.6C241.039 108.46 240.529 108.38 239.849 108.36V107.76C240.269 107.78 240.819 107.8 241.499 107.82C242.179 107.84 242.909 107.85 243.689 107.85C244.389 107.85 245.079 107.84 245.759 107.82C246.459 107.8 247.039 107.78 247.499 107.76V108.36C246.819 108.38 246.299 108.46 245.939 108.6C245.599 108.72 245.369 108.96 245.249 109.32C245.129 109.66 245.069 110.2 245.069 110.94V120.87C245.069 121.89 245.119 122.86 245.219 123.78C245.319 124.68 245.519 125.48 245.819 126.18C246.139 126.86 246.619 127.4 247.259 127.8C247.899 128.18 248.749 128.37 249.809 128.37C251.329 128.37 252.499 128.04 253.319 127.38C254.159 126.7 254.739 125.77 255.059 124.59C255.399 123.41 255.569 122.08 255.569 120.6V111.24C255.569 110.5 255.479 109.93 255.299 109.53C255.139 109.13 254.859 108.84 254.459 108.66C254.059 108.48 253.519 108.38 252.839 108.36V107.76C253.199 107.78 253.669 107.8 254.249 107.82C254.849 107.84 255.399 107.85 255.899 107.85C256.419 107.85 256.929 107.84 257.429 107.82C257.949 107.8 258.369 107.78 258.689 107.76ZM268.398 107.76V108.36C267.718 108.38 267.198 108.46 266.838 108.6C266.498 108.72 266.268 108.96 266.148 109.32C266.028 109.66 265.968 110.2 265.968 110.94V125.82C265.968 126.54 266.028 127.08 266.148 127.44C266.268 127.8 266.498 128.04 266.838 128.16C267.198 128.26 267.718 128.31 268.398 128.31H270.588C271.528 128.31 272.288 128.21 272.868 128.01C273.468 127.81 273.938 127.5 274.278 127.08C274.638 126.64 274.908 126.06 275.088 125.34C275.268 124.62 275.408 123.74 275.508 122.7H276.198C276.138 123.32 276.108 124.14 276.108 125.16C276.108 125.54 276.118 126.09 276.138 126.81C276.178 127.51 276.238 128.24 276.318 129C275.298 128.96 274.148 128.94 272.868 128.94C271.588 128.92 270.448 128.91 269.448 128.91C269.008 128.91 268.438 128.91 267.738 128.91C267.058 128.91 266.318 128.92 265.518 128.94C264.718 128.94 263.908 128.95 263.088 128.97C262.268 128.97 261.488 128.98 260.748 129V128.4C261.428 128.36 261.938 128.28 262.278 128.16C262.638 128.04 262.878 127.8 262.998 127.44C263.118 127.08 263.178 126.54 263.178 125.82V110.94C263.178 110.2 263.118 109.66 262.998 109.32C262.878 108.96 262.638 108.72 262.278 108.6C261.938 108.46 261.428 108.38 260.748 108.36V107.76C261.168 107.78 261.718 107.8 262.398 107.82C263.078 107.84 263.808 107.85 264.588 107.85C265.288 107.85 265.978 107.84 266.658 107.82C267.358 107.8 267.938 107.78 268.398 107.76ZM292.776 107.76C292.696 108.52 292.636 109.26 292.596 109.98C292.576 110.68 292.566 111.22 292.566 111.6C292.566 112.08 292.576 112.53 292.596 112.95C292.616 113.37 292.636 113.74 292.656 114.06H291.966C291.826 112.66 291.636 111.56 291.396 110.76C291.156 109.94 290.736 109.35 290.136 108.99C289.536 108.63 288.606 108.45 287.346 108.45H285.726V125.52C285.726 126.32 285.796 126.92 285.936 127.32C286.096 127.72 286.396 127.99 286.836 128.13C287.276 128.27 287.916 128.36 288.756 128.4V129C288.236 128.96 287.576 128.94 286.776 128.94C285.976 128.92 285.166 128.91 284.346 128.91C283.446 128.91 282.596 128.92 281.796 128.94C281.016 128.94 280.386 128.96 279.906 129V128.4C280.746 128.36 281.386 128.27 281.826 128.13C282.266 127.99 282.556 127.72 282.696 127.32C282.856 126.92 282.936 126.32 282.936 125.52V108.45H281.316C280.076 108.45 279.146 108.63 278.526 108.99C277.926 109.35 277.506 109.94 277.266 110.76C277.026 111.56 276.836 112.66 276.696 114.06H276.006C276.046 113.74 276.066 113.37 276.066 112.95C276.086 112.53 276.096 112.08 276.096 111.6C276.096 111.22 276.076 110.68 276.036 109.98C276.016 109.26 275.966 108.52 275.886 107.76C276.726 107.78 277.636 107.8 278.616 107.82C279.616 107.84 280.616 107.85 281.616 107.85C282.616 107.85 283.526 107.85 284.346 107.85C285.166 107.85 286.066 107.85 287.046 107.85C288.046 107.85 289.046 107.84 290.046 107.82C291.046 107.8 291.956 107.78 292.776 107.76ZM302.558 107.76V108.36C301.878 108.38 301.358 108.46 300.998 108.6C300.658 108.72 300.428 108.96 300.308 109.32C300.188 109.66 300.128 110.2 300.128 110.94V125.82C300.128 126.54 300.188 127.08 300.308 127.44C300.428 127.8 300.658 128.04 300.998 128.16C301.358 128.28 301.878 128.36 302.558 128.4V129C302.098 128.96 301.518 128.94 300.818 128.94C300.138 128.92 299.448 128.91 298.748 128.91C297.968 128.91 297.238 128.92 296.558 128.94C295.878 128.94 295.328 128.96 294.908 129V128.4C295.588 128.36 296.098 128.28 296.438 128.16C296.798 128.04 297.038 127.8 297.158 127.44C297.278 127.08 297.338 126.54 297.338 125.82V110.94C297.338 110.2 297.278 109.66 297.158 109.32C297.038 108.96 296.798 108.72 296.438 108.6C296.098 108.46 295.588 108.38 294.908 108.36V107.76C295.328 107.78 295.878 107.8 296.558 107.82C297.238 107.84 297.968 107.85 298.748 107.85C299.448 107.85 300.138 107.84 300.818 107.82C301.518 107.8 302.098 107.78 302.558 107.76ZM323.914 107.76V108.36C323.234 108.38 322.714 108.48 322.354 108.66C322.014 108.84 321.784 109.13 321.664 109.53C321.544 109.93 321.484 110.5 321.484 111.24V129.15C321.364 129.15 321.244 129.15 321.124 129.15C321.024 129.15 320.914 129.15 320.794 129.15L308.194 109.68V125.52C308.194 126.24 308.254 126.81 308.374 127.23C308.514 127.63 308.774 127.92 309.154 128.1C309.554 128.26 310.144 128.36 310.924 128.4V129C310.564 128.96 310.094 128.94 309.514 128.94C308.934 128.92 308.384 128.91 307.864 128.91C307.364 128.91 306.854 128.92 306.334 128.94C305.834 128.94 305.414 128.96 305.074 129V128.4C305.754 128.36 306.264 128.26 306.604 128.1C306.964 127.92 307.204 127.63 307.324 127.23C307.444 126.81 307.504 126.24 307.504 125.52V110.94C307.504 110.2 307.444 109.66 307.324 109.32C307.204 108.96 306.964 108.72 306.604 108.6C306.264 108.46 305.754 108.38 305.074 108.36V107.76C305.414 107.78 305.834 107.8 306.334 107.82C306.854 107.84 307.364 107.85 307.864 107.85C308.304 107.85 308.724 107.84 309.124 107.82C309.524 107.8 309.884 107.78 310.204 107.76L320.794 124.08V111.24C320.794 110.5 320.724 109.93 320.584 109.53C320.464 109.13 320.204 108.84 319.804 108.66C319.424 108.48 318.844 108.38 318.064 108.36V107.76C318.424 107.78 318.894 107.8 319.474 107.82C320.074 107.84 320.624 107.85 321.124 107.85C321.644 107.85 322.154 107.84 322.654 107.82C323.174 107.8 323.594 107.78 323.914 107.76ZM336.071 107.34C337.371 107.34 338.421 107.54 339.221 107.94C340.021 108.32 340.771 108.77 341.471 109.29C341.731 109.49 341.931 109.59 342.071 109.59C342.451 109.59 342.701 108.98 342.821 107.76H343.511C343.471 108.5 343.441 109.4 343.421 110.46C343.401 111.52 343.391 112.92 343.391 114.66H342.701C342.561 113.82 342.391 113.01 342.191 112.23C341.991 111.45 341.661 110.78 341.201 110.22C340.621 109.48 339.861 108.91 338.921 108.51C337.981 108.09 337.011 107.88 336.011 107.88C335.011 107.88 334.101 108.13 333.281 108.63C332.481 109.11 331.791 109.81 331.211 110.73C330.631 111.65 330.181 112.76 329.861 114.06C329.561 115.34 329.411 116.79 329.411 118.41C329.411 122.01 329.991 124.65 331.151 126.33C332.311 127.99 334.111 128.82 336.551 128.82C337.271 128.82 337.891 128.72 338.411 128.52C338.951 128.3 339.371 128.09 339.671 127.89C340.051 127.63 340.291 127.39 340.391 127.17C340.491 126.93 340.541 126.62 340.541 126.24V123.36C340.541 122.54 340.461 121.93 340.301 121.53C340.141 121.13 339.841 120.86 339.401 120.72C338.981 120.58 338.351 120.5 337.511 120.48V119.88C337.871 119.9 338.291 119.92 338.771 119.94C339.251 119.94 339.751 119.95 340.271 119.97C340.811 119.97 341.301 119.97 341.741 119.97C342.401 119.97 342.991 119.96 343.511 119.94C344.051 119.92 344.501 119.9 344.861 119.88V120.48C344.421 120.5 344.091 120.57 343.871 120.69C343.651 120.81 343.501 121.05 343.421 121.41C343.361 121.77 343.331 122.32 343.331 123.06V129H342.731C342.711 128.66 342.631 128.29 342.491 127.89C342.371 127.49 342.181 127.29 341.921 127.29C341.801 127.29 341.681 127.32 341.561 127.38C341.441 127.44 341.231 127.58 340.931 127.8C340.271 128.3 339.571 128.7 338.831 129C338.091 129.28 337.231 129.42 336.251 129.42C334.191 129.42 332.421 129 330.941 128.16C329.481 127.3 328.361 126.07 327.581 124.47C326.801 122.87 326.411 120.96 326.411 118.74C326.411 116.4 326.831 114.38 327.671 112.68C328.511 110.98 329.651 109.67 331.091 108.75C332.551 107.81 334.211 107.34 336.071 107.34Z" fill="#1E1E1E"/>
<path d="M0 172H348" stroke="#533E59" stroke-opacity="0.7" stroke-width="4"/>
</svg>
