<svg xmlns="http://www.w3.org/2000/svg" viewBox="0 0 600 500" fill="none">
  <rect width="600" height="500" rx="24" fill="#F5F0F6"/>
  <!-- Abstract consulting illustration -->
  <circle cx="300" cy="200" r="120" fill="#654D6C" opacity="0.1"/>
  <circle cx="300" cy="200" r="80" fill="#533E59" opacity="0.15"/>
  <!-- Strategy graph -->
  <path d="M160 350 L240 280 L320 310 L400 230 L440 250" stroke="#533E59" stroke-width="3" stroke-linecap="round" stroke-linejoin="round"/>
  <circle cx="160" cy="350" r="6" fill="#533E59"/>
  <circle cx="240" cy="280" r="6" fill="#533E59"/>
  <circle cx="320" cy="310" r="6" fill="#533E59"/>
  <circle cx="400" cy="230" r="6" fill="#533E59"/>
  <circle cx="440" cy="250" r="6" fill="#533E59"/>
  <!-- Arrow up -->
  <path d="M440 250 L455 235" stroke="#654D6C" stroke-width="2.5" stroke-linecap="round"/>
  <path d="M440 250 L455 260" stroke="#654D6C" stroke-width="2.5" stroke-linecap="round"/>
  <!-- People silhouettes -->
  <circle cx="220" cy="160" r="20" fill="#533E59" opacity="0.3"/>
  <rect x="205" y="185" width="30" height="40" rx="8" fill="#533E59" opacity="0.3"/>
  <circle cx="300" cy="140" r="24" fill="#533E59" opacity="0.4"/>
  <rect x="282" y="170" width="36" height="48" rx="10" fill="#533E59" opacity="0.4"/>
  <circle cx="380" cy="160" r="20" fill="#533E59" opacity="0.3"/>
  <rect x="365" y="185" width="30" height="40" rx="8" fill="#533E59" opacity="0.3"/>
  <!-- Connection lines -->
  <line x1="240" y1="170" x2="278" y2="155" stroke="#654D6C" stroke-width="1.5" opacity="0.4"/>
  <line x1="322" y1="155" x2="360" y2="170" stroke="#654D6C" stroke-width="1.5" opacity="0.4"/>
  <!-- Placeholder text -->
  <text x="300" y="430" text-anchor="middle" font-family="system-ui, sans-serif" font-size="14" fill="#654D6C" opacity="0.6">Votre image ici</text>
</svg>
